v -0.194844 0.981127 0.000317
v -0.382437 0.924221 0.000317
v -0.555324 0.831811 0.000317
v -0.706861 0.707448 0.000317
v -0.831223 0.555912 0.000317
v -0.923633 0.383025 0.000317
v -0.980539 0.195432 0.000317
v -0.999754 0.000341 0.000317
v 0.000247 0.981127 0.195407
v 0.000246 0.924221 0.383000
v 0.000246 0.831811 0.555887
v 0.000246 0.707448 0.707424
v 0.000246 0.555912 0.831786
v 0.000247 0.383025 0.924196
v 0.000246 0.195432 0.981102
v 0.000246 0.000341 1.000317
v -0.037814 0.981127 0.191659
v -0.074411 0.924221 0.375647
v -0.108140 0.831811 0.545212
v -0.137703 0.707448 0.693837
v -0.161965 0.555912 0.815810
v -0.179993 0.383025 0.906444
v -0.191095 0.195432 0.962256
v -0.194844 0.000341 0.981102
v 0.000246 1.000341 0.000317
v -0.074411 0.981127 0.180557
v -0.146200 0.924221 0.353870
v -0.212361 0.831811 0.513597
v -0.270352 0.707448 0.653598
v -0.317943 0.555912 0.768494
v -0.353307 0.383025 0.853870
v -0.375084 0.195432 0.906444
v -0.382437 0.000341 0.924196
v -0.108140 0.981127 0.162529
v -0.212361 0.924221 0.318506
v -0.308412 0.831811 0.462256
v -0.392601 0.707448 0.588255
v -0.461693 0.555912 0.691658
v -0.513033 0.383025 0.768494
v -0.544649 0.195432 0.815809
v -0.555324 0.000341 0.831786
v -0.137703 0.981127 0.138267
v -0.270351 0.924221 0.270915
v -0.392601 0.831811 0.393164
v -0.499754 0.707448 0.500317
v -0.587691 0.555912 0.588254
v -0.653035 0.383025 0.653598
v -0.693273 0.195432 0.693836
v -0.706860 0.000341 0.707423
v -0.161965 0.981127 0.108703
v -0.317943 0.924221 0.212924
v -0.461693 0.831811 0.308975
v -0.587691 0.707448 0.393164
v -0.691095 0.555912 0.462256
v -0.767931 0.383025 0.513597
v -0.815246 0.195432 0.545211
v -0.831223 0.000341 0.555887
v -0.179994 0.981127 0.074975
v -0.353307 0.924221 0.146763
v -0.513033 0.831811 0.212924
v -0.653035 0.707448 0.270915
v -0.767931 0.555912 0.318506
v -0.853307 0.383025 0.353870
v -0.905880 0.195432 0.375647
v -0.923633 0.000341 0.383000
v -0.191095 0.981127 0.038377
v -0.375084 0.924221 0.074975
v -0.544648 0.831811 0.108703
v -0.693273 0.707448 0.138266
v -0.815246 0.555912 0.162528
v -0.905881 0.383025 0.180557
v -0.961693 0.195432 0.191658
v -0.980538 0.000341 0.195407
v -0.000331 0.000209 -0.000078
v -0.038493 0.980070 0.195075
v -0.080085 0.976629 0.194254
v -0.128359 0.970087 0.192789
v -0.189766 0.958792 0.190329
v -0.277734 0.938891 0.186057
v -0.333973 0.924221 0.182935
v -0.420987 0.885064 0.174798
v -0.527945 0.831811 0.163766
vn -0.028600 0.956500 0.290200
vn -0.046400 0.881000 0.470900
vn -0.062400 0.771500 0.633200
vn -0.075900 0.632600 0.770800
vn -0.086500 0.469600 0.878600
vn -0.093800 0.289000 0.952700
vn -0.097600 0.097600 0.990400
vn -0.009700 0.995100 0.098000
vn -0.256300 0.469600 0.844800
vn -0.277900 0.289000 0.916100
vn -0.288900 0.097600 0.952400
vn -0.028600 0.995100 0.094200
vn -0.084600 0.956500 0.279000
vn -0.137400 0.881000 0.452800
vn -0.184700 0.771500 0.608800
vn -0.224800 0.632600 0.741200
vn -0.137400 0.956500 0.257100
vn -0.223100 0.881000 0.417300
vn -0.299900 0.771500 0.561100
vn -0.365100 0.632600 0.683100
vn -0.416200 0.469600 0.778600
vn -0.451300 0.289000 0.844300
vn -0.469100 0.097600 0.877700
vn -0.046400 0.995100 0.086900
vn -0.560100 0.469600 0.682500
vn -0.607300 0.289000 0.740000
vn -0.631400 0.097600 0.769300
vn -0.062500 0.995100 0.076100
vn -0.185000 0.956500 0.225400
vn -0.300200 0.881000 0.365800
vn -0.403600 0.771500 0.491800
vn -0.491300 0.632600 0.598700
vn -0.365800 0.881000 0.300200
vn -0.491800 0.771500 0.403600
vn -0.598700 0.632600 0.491300
vn -0.682500 0.469600 0.560100
vn -0.740000 0.289000 0.607300
vn -0.769300 0.097600 0.631400
vn -0.076100 0.995100 0.062500
vn -0.225400 0.956500 0.185000
vn -0.844300 0.289000 0.451300
vn -0.877700 0.097600 0.469100
vn -0.086900 0.995100 0.046400
vn -0.257100 0.956500 0.137400
vn -0.417300 0.881000 0.223000
vn -0.561100 0.771500 0.299900
vn -0.683100 0.632600 0.365100
vn -0.778600 0.469600 0.416200
vn -0.608800 0.771500 0.184700
vn -0.741200 0.632600 0.224800
vn -0.844800 0.469600 0.256300
vn -0.916100 0.289000 0.277900
vn 1.000000 -0.000100 -0.000600
vn -0.952400 0.097600 0.288900
vn -0.094200 0.995100 0.028600
vn -0.279000 0.956500 0.084600
vn -0.452800 0.881000 0.137400
vn -0.990400 0.097500 0.097600
vn -0.098000 0.995100 0.009600
vn -0.290200 0.956500 0.028600
vn -0.470900 0.881000 0.046400
vn -0.633200 0.771500 0.062400
vn -0.770800 0.632600 0.075900
vn -0.878600 0.469600 0.086500
vn -0.952700 0.289000 0.093800
vn -0.000000 0.000400 -1.000000
vn -0.417300 0.881000 0.223100
vn 1.000000 -0.000600 -0.000100
vn 1.000000 -0.000600 -0.000200
vn 1.000000 -0.000500 -0.000300
vn 1.000000 -0.000400 -0.000400
vn 1.000000 -0.000300 -0.000500
vn 1.000000 -0.000200 -0.000600
vn -0.000100 0.000400 -1.000000
vn -0.000200 0.000300 -1.000000
vn -0.000300 0.000300 -1.000000
vn -0.000400 0.000200 -1.000000
vn -0.000400 0.000100 -1.000000
vn -0.000400 0.000000 -1.000000
vn -0.000100 -1.000000 0.000000
vn -0.000100 -1.000000 0.000100
vn -0.000000 -1.000000 0.000100
vn -0.223000 0.881000 0.417300
vn -0.257100 0.956600 0.137400
vn -0.990400 0.097600 0.097600
usemtl None
s off
f 9//1 17//1 75//1
f 10//2 19//2 11//2
f 12//3 19//3 20//3
f 13//4 20//4 21//4
f 13//5 22//5 14//5
f 15//6 22//6 23//6
f 15//7 24//7 16//7
f 9//8 25//8 17//8
f 21//9 31//9 22//9
f 23//10 31//10 32//10
f 23//11 33//11 24//11
f 17//12 25//12 26//12
f 75//13 26//13 76//13
f 18//14 28//14 19//14
f 20//15 28//15 29//15
f 20//16 30//16 21//16
f 76//17 34//17 77//17
f 28//18 35//18 36//18
f 29//19 36//19 37//19
f 30//20 37//20 38//20
f 30//21 39//21 31//21
f 32//22 39//22 40//22
f 32//23 41//23 33//23
f 26//24 25//24 34//24
f 38//25 47//25 39//25
f 40//26 47//26 48//26
f 40//27 49//27 41//27
f 34//28 25//28 42//28
f 77//29 42//29 78//29
f 35//30 44//30 36//30
f 36//31 45//31 37//31
f 38//32 45//32 46//32
f 43//33 52//33 44//33
f 44//34 53//34 45//34
f 46//35 53//35 54//35
f 46//36 55//36 47//36
f 48//37 55//37 56//37
f 49//38 56//38 57//38
f 42//39 25//39 50//39
f 78//40 50//40 79//40
f 56//41 63//41 64//41
f 56//42 65//42 57//42
f 50//43 25//43 58//43
f 58//44 59//44 79//44
f 81//45 80//45 59//45
f 53//46 60//46 61//46
f 54//47 61//47 62//47
f 54//48 63//48 55//48
f 69//49 82//49 68//49
f 62//50 69//50 70//50
f 62//51 71//51 63//51
f 64//52 71//52 72//52
f 15//53 16//53 74//53
f 64//54 73//54 65//54
f 58//55 25//55 66//55
f 58//56 67//56 59//56
f 67//57 68//57 81//57
f 73//58 7//58 8//58
f 66//59 25//59 1//59
f 67//60 1//60 2//60
f 68//61 2//61 3//61
f 69//62 3//62 4//62
f 70//63 4//63 5//63
f 71//64 5//64 6//64
f 72//65 6//65 7//65
f 1//66 25//66 74//66
f 60//57 81//57 82//57
f 51//67 81//67 52//67
f 51//44 79//44 80//44
f 43//40 79//40 51//40
f 35//29 78//29 43//29
f 27//17 77//17 35//17
f 18//13 76//13 27//13
f 61//49 82//49 69//49
f 10//1 75//1 18//1
f 25//68 9//68 74//68
f 9//69 10//69 74//69
f 10//70 11//70 74//70
f 11//71 12//71 74//71
f 12//71 13//71 74//71
f 13//72 14//72 74//72
f 14//73 15//73 74//73
f 2//74 1//74 74//74
f 3//75 2//75 74//75
f 4//76 3//76 74//76
f 5//76 4//76 74//76
f 6//77 5//77 74//77
f 7//78 6//78 74//78
f 8//79 7//79 74//79
f 74//80 65//80 73//80
f 74//81 57//81 65//81
f 8//80 74//80 73//80
f 74//81 49//81 57//81
f 74//81 41//81 49//81
f 33//81 41//81 74//81
f 24//82 33//82 74//82
f 16//82 24//82 74//82
f 10//2 18//2 19//2
f 12//3 11//3 19//3
f 13//4 12//4 20//4
f 13//5 21//5 22//5
f 15//6 14//6 22//6
f 15//7 23//7 24//7
f 21//9 30//9 31//9
f 23//10 22//10 31//10
f 23//11 32//11 33//11
f 75//13 17//13 26//13
f 18//14 27//14 28//14
f 20//15 19//15 28//15
f 20//16 29//16 30//16
f 76//17 26//17 34//17
f 28//83 27//83 35//83
f 29//19 28//19 36//19
f 30//20 29//20 37//20
f 30//21 38//21 39//21
f 32//22 31//22 39//22
f 32//23 40//23 41//23
f 38//25 46//25 47//25
f 40//26 39//26 47//26
f 40//27 48//27 49//27
f 77//29 34//29 42//29
f 35//30 43//30 44//30
f 36//31 44//31 45//31
f 38//32 37//32 45//32
f 43//33 51//33 52//33
f 44//34 52//34 53//34
f 46//35 45//35 53//35
f 46//36 54//36 55//36
f 48//37 47//37 55//37
f 49//38 48//38 56//38
f 78//40 42//40 50//40
f 56//41 55//41 63//41
f 56//42 64//42 65//42
f 80//84 79//84 59//84
f 50//44 58//44 79//44
f 53//46 52//46 60//46
f 54//47 53//47 61//47
f 54//48 62//48 63//48
f 62//50 61//50 69//50
f 62//51 70//51 71//51
f 64//52 63//52 71//52
f 64//54 72//54 73//54
f 58//56 66//56 67//56
f 82//57 81//57 68//57
f 59//57 67//57 81//57
f 73//85 72//85 7//85
f 67//60 66//60 1//60
f 68//61 67//61 2//61
f 69//62 68//62 3//62
f 70//63 69//63 4//63
f 71//64 70//64 5//64
f 72//65 71//65 6//65
f 60//45 52//45 81//45
f 51//67 80//67 81//67
f 43//40 78//40 79//40
f 35//29 77//29 78//29
f 27//17 76//17 77//17
f 18//13 75//13 76//13
f 61//49 60//49 82//49
f 10//1 9//1 75//1
